<svg xmlns="http://www.w3.org/2000/svg" width="194" height="178" viewBox="0 0 194 178" fill="none">
  <!-- Black background -->
  <rect width="194" height="178" fill="#000000"/>
  <!-- Logo content -->
  <path d="M75.3665 84.1379H91.4661V112.637C91.4661 112.637 83.0663 117.937 70.5666 117.937C57.9669 117.937 37.0675 111.637 37.0675 84.9379C37.0675 61.7385 53.4671 52.1387 71.4666 52.1387C82.8663 52.1387 89.7661 54.5387 89.7661 54.5387V56.5386C89.7661 56.5386 83.2663 53.7387 71.4666 53.7387C60.8669 53.7387 44.3673 59.0385 44.3673 84.9379C44.3673 108.437 55.867 116.237 71.4666 116.237C76.4665 116.237 80.9664 115.237 84.3663 113.937V85.8379H75.3665V84.1379ZM127.144 53.3387C138.744 53.3387 158.943 56.3386 158.943 83.7379C158.943 117.637 125.444 116.137 122.444 116.137H101.245V53.3387H127.144ZM122.244 114.537C135.944 114.537 151.543 108.137 151.543 83.7379C151.543 59.2385 134.744 55.0387 123.344 55.0387H108.345V114.537H122.244Z" fill="#D19D5C"/>
  <path d="M2.0988 172.518V156.75H4.00812V170.824H11.3374V172.518H2.0988ZM47.7963 164.634C47.7963 166.297 47.496 167.734 46.8955 168.945C46.295 170.157 45.4712 171.091 44.4242 171.748C43.3771 172.405 42.1812 172.733 40.8365 172.733C39.4917 172.733 38.2959 172.405 37.2488 171.748C36.2018 171.091 35.378 170.157 34.7775 168.945C34.177 167.734 33.8767 166.297 33.8767 164.634C33.8767 162.971 34.177 161.534 34.7775 160.323C35.378 159.111 36.2018 158.177 37.2488 157.52C38.2959 156.863 39.4917 156.535 40.8365 156.535C42.1812 156.535 43.3771 156.863 44.4242 157.52C45.4712 158.177 46.295 159.111 46.8955 160.323C47.496 161.534 47.7963 162.971 47.7963 164.634ZM45.9485 164.634C45.9485 163.269 45.7201 162.116 45.2633 161.177C44.8117 160.238 44.1983 159.527 43.4233 159.045C42.6534 158.562 41.7911 158.321 40.8365 158.321C39.8818 158.321 39.017 158.562 38.242 159.045C37.4721 159.527 36.8587 160.238 36.4019 161.177C35.9503 162.116 35.7244 163.269 35.7244 164.634C35.7244 165.999 35.9503 167.151 36.4019 168.091C36.8587 169.03 37.4721 169.741 38.242 170.223C39.017 170.706 39.8818 170.947 40.8365 170.947C41.7911 170.947 42.6534 170.706 43.4233 170.223C44.1983 169.741 44.8117 169.03 45.2633 168.091C45.7201 167.151 45.9485 165.999 45.9485 164.634ZM82.1668 156.75H84.0761V167.19C84.0761 168.268 83.822 169.23 83.3139 170.077C82.8109 170.919 82.1 171.583 81.1813 172.071C80.2626 172.554 79.1847 172.795 77.9478 172.795C76.7108 172.795 75.633 172.554 74.7143 172.071C73.7955 171.583 73.0821 170.919 72.574 170.077C72.071 169.23 71.8195 168.268 71.8195 167.19V156.75H73.7288V167.036C73.7288 167.806 73.8982 168.491 74.2369 169.092C74.5757 169.687 75.0581 170.157 75.6843 170.5C76.3156 170.839 77.0701 171.009 77.9478 171.009C78.8254 171.009 79.5799 170.839 80.2112 170.5C80.8426 170.157 81.325 169.687 81.6586 169.092C81.9974 168.491 82.1668 167.806 82.1668 167.036V156.75ZM121.205 156.75V172.518H119.357L110.765 160.138H110.611V172.518H108.702V156.75H110.549L119.172 169.161H119.326V156.75H121.205ZM156.616 161.678C156.447 161.159 156.224 160.695 155.947 160.284C155.675 159.868 155.349 159.514 154.969 159.222C154.594 158.929 154.168 158.706 153.691 158.552C153.214 158.398 152.69 158.321 152.12 158.321C151.186 158.321 150.337 158.562 149.572 159.045C148.807 159.527 148.199 160.238 147.747 161.177C147.296 162.116 147.07 163.269 147.07 164.634C147.07 165.999 147.298 167.151 147.755 168.091C148.212 169.03 148.83 169.741 149.61 170.223C150.391 170.706 151.268 170.947 152.243 170.947C153.147 170.947 153.942 170.755 154.63 170.37C155.323 169.98 155.862 169.43 156.247 168.722C156.637 168.009 156.832 167.169 156.832 166.205L157.417 166.328H152.675V164.634H158.68V166.328C158.68 167.626 158.403 168.755 157.848 169.715C157.299 170.675 156.539 171.419 155.569 171.948C154.604 172.471 153.496 172.733 152.243 172.733C150.847 172.733 149.621 172.405 148.563 171.748C147.511 171.091 146.69 170.157 146.1 168.945C145.515 167.734 145.222 166.297 145.222 164.634C145.222 163.387 145.389 162.265 145.723 161.27C146.061 160.269 146.539 159.417 147.155 158.714C147.77 158.01 148.499 157.471 149.341 157.097C150.183 156.722 151.109 156.535 152.12 156.535C152.952 156.535 153.727 156.66 154.445 156.912C155.169 157.158 155.813 157.51 156.378 157.967C156.948 158.418 157.422 158.96 157.802 159.591C158.182 160.217 158.444 160.913 158.587 161.678H156.616ZM182.763 172.518V156.75H192.278V158.444H184.672V163.772H191.786V165.465H184.672V170.824H192.402V172.518H182.763Z" fill="#D19D5C"/>
  <path d="M192.688 131.061V96.3398C192.688 43.6851 150.194 1 97.7747 1C45.3558 1 2.86182 43.6851 2.86182 96.3398V131.061" stroke="#D19D5C" stroke-width="1.82057" stroke-linecap="square"/>
</svg>
